<svg id="svg" version="1.1" xmlns="http://www.w3.org/2000/svg" xmlns:xlink="http://www.w3.org/1999/xlink" width="400" height="400" viewBox="0, 0, 400,400"><g id="svgg"><path id="path0" d="M0.000 32.979 C 0.000 51.847,0.127 66.036,0.298 66.141 C 0.716 66.400,4.355 62.997,4.357 62.345 C 4.358 62.050,4.584 61.377,4.860 60.849 C 5.135 60.322,5.360 59.462,5.360 58.940 C 5.360 56.397,6.059 54.616,7.544 53.375 C 9.234 51.962,9.447 51.361,9.542 47.739 C 9.635 44.202,9.816 43.745,11.372 43.134 C 13.119 42.447,13.396 41.351,13.398 35.105 C 13.400 30.894,13.503 29.917,14.101 28.404 C 15.046 26.016,14.823 24.474,13.325 23.040 C 12.183 21.948,11.790 20.464,11.303 15.412 C 11.246 14.815,10.871 14.410,9.992 13.997 C 8.164 13.138,7.817 10.656,9.316 9.157 C 9.628 8.845,9.883 8.465,9.883 8.312 C 9.883 8.159,10.376 7.734,10.980 7.367 C 12.399 6.504,12.740 5.534,12.694 2.489 L 12.657 -0.000 6.329 -0.000 L 0.000 0.000 0.000 32.979 M233.128 73.331 C 232.599 74.850,231.634 74.943,229.034 73.728 C 226.365 72.480,226.028 72.463,225.185 73.534 C 224.638 74.230,224.240 74.372,222.835 74.372 C 221.059 74.372,220.101 75.099,220.101 76.445 C 220.101 77.506,218.136 78.039,216.170 77.512 C 215.758 77.402,214.980 76.594,214.440 75.717 C 213.262 73.802,212.001 73.398,209.718 74.203 C 208.682 74.569,207.667 74.653,206.161 74.499 C 204.099 74.287,198.682 74.781,196.278 75.399 C 195.529 75.592,192.218 75.585,187.568 75.380 C 180.390 75.065,177.324 75.013,172.529 75.128 C 171.326 75.156,168.920 74.859,167.151 74.462 C 163.524 73.649,162.893 73.716,158.602 75.376 C 153.878 77.202,152.325 78.110,151.636 79.447 C 151.201 80.291,150.475 80.941,149.289 81.548 C 148.344 82.031,146.491 83.366,145.172 84.513 C 143.852 85.661,141.387 87.353,139.694 88.275 C 136.275 90.135,134.475 91.505,134.165 92.482 C 134.051 92.838,133.313 93.508,132.524 93.971 C 130.140 95.368,128.041 98.116,125.104 103.685 C 124.424 104.975,123.458 106.558,122.957 107.203 C 122.457 107.848,121.468 109.430,120.760 110.720 C 120.052 112.010,119.095 113.570,118.633 114.187 C 117.933 115.122,117.758 115.819,117.584 118.375 C 117.467 120.099,117.146 121.880,116.853 122.446 C 116.566 122.998,116.224 124.807,116.093 126.466 C 115.963 128.124,115.505 130.988,115.075 132.831 C 114.355 135.922,114.307 136.700,114.463 142.881 C 114.556 146.610,114.472 151.141,114.273 153.099 C 112.496 170.551,113.186 181.046,116.184 182.155 C 117.087 182.489,122.450 187.654,124.501 190.166 C 125.533 191.429,127.416 193.488,128.685 194.742 C 131.977 197.993,132.551 199.287,133.473 205.528 C 135.012 215.950,136.358 218.987,137.704 215.074 C 137.989 214.246,138.613 212.814,139.090 211.893 C 140.426 209.314,140.698 207.962,141.043 202.178 C 141.817 189.224,141.951 188.584,144.452 185.903 C 146.185 184.044,146.465 183.363,148.087 177.042 C 150.296 168.434,152.995 161.947,154.849 160.790 C 156.136 159.987,156.979 160.056,160.302 161.236 C 169.001 164.326,170.416 164.187,173.558 159.935 C 174.425 158.761,175.458 157.840,176.497 157.313 C 177.378 156.867,178.304 156.255,178.554 155.953 C 179.918 154.310,181.794 153.689,184.635 153.940 C 186.917 154.142,187.706 154.068,189.572 153.477 C 190.793 153.090,193.677 152.313,195.980 151.750 C 198.283 151.187,201.374 150.190,202.848 149.533 C 207.751 147.349,207.885 147.319,211.725 147.551 C 215.372 147.771,217.953 147.293,222.446 145.567 C 224.934 144.611,225.858 144.580,226.924 145.419 C 228.143 146.377,234.283 146.668,237.018 145.897 C 238.951 145.352,243.436 144.424,245.397 144.163 C 247.238 143.918,249.187 144.513,250.586 145.747 C 251.231 146.316,252.539 147.134,253.494 147.566 C 254.448 147.997,255.880 148.939,256.676 149.658 C 257.472 150.377,259.028 151.683,260.134 152.560 C 268.818 159.451,271.568 167.388,270.422 182.245 C 269.514 194.009,269.486 194.121,267.811 192.650 C 265.313 190.456,259.049 189.865,249.414 190.915 C 247.203 191.155,244.640 191.410,243.719 191.480 C 240.391 191.733,239.198 192.012,237.210 193.006 C 234.347 194.436,233.204 196.139,234.127 197.595 C 235.131 199.179,243.205 198.168,250.084 195.597 C 253.433 194.345,259.532 194.489,263.374 195.910 C 266.674 197.131,267.528 197.218,268.407 196.423 C 269.872 195.097,270.079 197.492,269.395 207.864 C 268.927 214.960,269.239 216.640,270.375 213.144 C 270.960 211.343,275.317 203.375,276.405 202.117 C 276.911 201.531,277.578 200.174,277.886 199.102 C 278.194 198.030,279.188 195.659,280.094 193.833 C 281.001 192.007,281.742 190.313,281.742 190.068 C 281.742 189.822,282.496 188.789,283.417 187.772 C 284.560 186.510,285.094 185.631,285.098 185.005 C 285.124 181.198,288.183 171.035,290.078 168.457 C 290.653 167.676,291.122 166.758,291.122 166.417 C 291.122 164.825,292.134 163.822,295.403 162.171 C 297.704 161.009,299.192 159.982,300.474 158.673 L 302.287 156.819 301.074 155.476 C 299.940 154.221,299.873 154.026,300.054 152.503 C 300.191 151.345,300.090 150.570,299.705 149.825 C 299.026 148.513,299.028 147.637,299.715 145.729 C 300.063 144.762,300.243 143.264,300.217 141.553 C 300.194 140.085,300.356 138.387,300.576 137.779 C 300.938 136.778,300.873 136.463,299.892 134.474 C 299.295 133.264,298.715 131.600,298.602 130.774 C 298.440 129.592,298.158 129.092,297.272 128.416 C 296.653 127.945,296.147 127.301,296.147 126.987 C 296.147 126.235,294.608 121.848,293.764 120.193 C 293.295 119.273,292.686 118.708,291.692 118.271 C 290.021 117.535,287.512 114.705,287.051 113.035 C 286.679 111.689,285.676 111.147,283.585 111.162 C 281.563 111.176,281.055 110.930,280.534 109.683 C 280.121 108.693,279.903 108.543,278.882 108.543 C 277.048 108.543,274.955 106.434,274.232 103.856 C 273.715 102.012,273.461 101.676,271.006 99.590 C 268.785 97.702,268.340 97.157,268.330 96.317 C 268.305 94.171,265.146 91.160,261.290 89.608 L 258.953 88.667 257.617 85.920 C 256.882 84.410,256.281 82.880,256.281 82.521 C 256.281 81.151,254.044 79.749,253.434 80.737 C 252.894 81.610,249.680 80.371,248.733 78.925 C 248.199 78.110,247.684 77.731,243.138 74.799 C 240.727 73.245,240.356 73.113,237.778 72.898 C 236.255 72.771,234.667 72.582,234.250 72.477 C 233.628 72.321,233.427 72.474,233.128 73.331 M258.913 103.493 C 260.798 104.454,261.279 105.144,260.476 105.731 C 259.121 106.722,253.955 105.800,253.127 104.419 C 252.217 102.902,256.433 102.228,258.913 103.493 M160.723 181.904 C 154.832 183.146,151.562 186.789,154.078 189.306 C 155.273 190.500,155.907 190.521,158.448 189.452 C 167.174 185.779,171.551 185.931,182.412 190.283 C 194.772 195.237,201.598 193.851,194.186 187.893 C 192.172 186.274,190.368 185.675,185.762 185.096 C 184.841 184.981,182.730 184.527,181.072 184.088 C 179.414 183.649,176.323 182.828,174.204 182.263 C 169.590 181.035,165.379 180.922,160.723 181.904 M174.204 198.325 C 173.744 198.472,172.678 198.608,171.836 198.627 C 169.524 198.677,166.700 200.209,166.554 201.491 C 166.355 203.243,168.512 203.878,171.558 202.965 C 172.718 202.618,173.177 202.699,176.308 203.803 C 181.264 205.551,182.651 205.333,184.557 202.509 C 185.781 200.696,185.780 200.057,184.556 199.369 C 183.551 198.805,182.215 199.100,182.859 199.743 C 183.487 200.371,183.344 201.675,182.647 201.675 C 181.397 201.675,180.933 200.690,181.782 199.840 C 182.513 199.109,182.289 198.963,179.652 198.453 C 177.125 197.964,175.454 197.925,174.204 198.325 M237.186 203.428 C 234.299 204.949,237.787 209.626,242.066 209.969 C 245.070 210.210,245.696 209.957,247.229 207.882 C 248.856 205.680,248.869 205.528,247.487 204.686 C 245.525 203.490,243.661 203.829,244.314 205.263 C 244.638 205.973,244.599 206.176,244.060 206.569 C 242.750 207.527,240.978 206.202,242.024 205.047 C 243.336 203.597,239.378 202.273,237.186 203.428 M252.485 206.924 C 251.475 207.933,253.460 210.385,255.286 210.385 C 256.743 210.385,257.104 210.032,256.816 208.886 C 256.473 207.518,253.319 206.089,252.485 206.924 M130.574 242.382 C 128.705 243.434,127.866 246.678,128.743 249.458 C 129.026 250.355,129.358 251.685,129.481 252.413 C 129.604 253.142,129.987 254.292,130.332 254.969 C 130.678 255.646,131.214 257.211,131.525 258.447 C 132.147 260.924,132.394 261.147,134.040 260.721 L 135.164 260.430 135.566 256.932 C 135.788 255.008,135.979 252.741,135.991 251.895 C 136.003 251.049,136.315 249.480,136.683 248.409 C 137.926 244.797,137.317 242.211,135.223 242.211 C 134.788 242.211,133.770 242.133,132.961 242.038 C 131.978 241.923,131.187 242.036,130.574 242.382 M128.897 272.959 C 127.286 274.565,124.798 277.022,123.369 278.418 C 121.940 279.814,120.017 281.977,119.095 283.226 C 117.478 285.417,104.826 298.439,103.253 299.531 C 101.961 300.429,99.814 302.255,97.977 304.020 C 94.346 307.509,91.346 309.548,89.842 309.548 C 89.492 309.548,88.640 309.932,87.948 310.401 C 87.256 310.871,86.258 311.341,85.729 311.447 C 85.125 311.568,84.213 312.290,83.270 313.393 C 82.080 314.787,81.441 315.234,80.166 315.568 C 78.403 316.030,74.567 318.391,72.643 320.198 C 71.969 320.832,71.271 321.260,71.092 321.149 C 70.756 320.941,67.648 322.450,67.317 322.982 C 66.873 323.696,62.986 325.773,61.175 326.265 C 60.090 326.559,59.096 327.027,58.967 327.303 C 58.838 327.580,58.585 328.107,58.405 328.476 C 58.225 328.844,57.523 329.422,56.845 329.760 C 55.389 330.484,55.328 330.724,56.449 331.323 C 56.975 331.605,57.286 332.062,57.286 332.552 C 57.286 332.982,57.456 333.333,57.662 333.333 C 58.687 333.333,57.106 334.288,55.850 334.428 C 54.065 334.627,47.498 333.330,48.433 332.963 C 48.788 332.824,48.885 332.700,48.648 332.687 C 48.411 332.674,47.866 332.893,47.437 333.175 C 47.008 333.456,45.393 333.893,43.848 334.147 C 42.303 334.400,39.456 335.130,37.521 335.769 C 32.026 337.583,30.565 338.023,30.038 338.023 C 29.769 338.023,28.689 338.476,27.638 339.028 C 26.262 339.752,25.264 340.034,24.071 340.034 C 22.752 340.034,22.261 340.198,21.668 340.838 C 21.259 341.280,20.248 341.815,19.423 342.027 C 18.598 342.239,17.395 342.611,16.750 342.854 C 16.106 343.097,14.851 343.402,13.962 343.531 C 11.809 343.845,8.468 345.119,5.193 346.875 C 3.719 347.665,1.947 348.415,1.256 348.543 L 0.000 348.774 0.000 374.387 L 0.000 400.000 72.299 400.000 L 144.598 400.000 145.349 398.983 C 146.173 397.869,146.091 397.064,145.013 395.683 C 144.584 395.135,144.389 394.332,144.389 393.121 C 144.389 391.805,144.131 390.867,143.372 389.424 C 142.526 387.818,142.390 387.252,142.566 386.079 C 142.788 384.601,142.379 383.410,141.403 382.690 C 140.990 382.385,140.866 381.635,140.850 379.340 C 140.833 376.840,140.691 376.097,139.932 374.539 C 139.418 373.483,139.034 372.123,139.032 371.352 C 139.030 370.612,138.727 369.444,138.358 368.757 C 137.929 367.956,137.688 366.867,137.688 365.727 C 137.688 364.681,137.486 363.679,137.197 363.297 C 136.926 362.939,136.700 362.044,136.694 361.307 C 136.681 359.756,135.816 354.597,135.477 354.049 C 135.351 353.845,135.140 352.756,135.009 351.629 C 134.785 349.704,134.592 348.753,133.673 345.059 C 133.466 344.229,133.082 342.345,132.818 340.871 C 132.554 339.397,132.113 337.211,131.838 336.013 C 131.563 334.816,131.332 333.459,131.326 332.998 C 131.320 332.538,131.008 331.182,130.633 329.986 C 130.230 328.699,129.904 326.581,129.836 324.794 C 129.772 323.134,129.402 320.451,129.014 318.831 C 128.626 317.212,128.308 315.303,128.308 314.590 C 128.308 313.876,128.007 312.337,127.638 311.169 C 127.270 310.001,126.811 307.613,126.618 305.863 C 126.425 304.112,126.051 301.513,125.788 300.087 C 123.944 290.114,126.971 275.984,131.288 274.407 C 133.175 273.718,133.556 273.118,133.148 271.470 C 132.674 269.560,132.106 269.759,128.897 272.959 M241.398 307.286 C 241.312 307.701,241.145 308.925,241.027 310.007 C 240.909 311.089,240.589 312.596,240.315 313.357 C 239.905 314.499,239.857 315.999,240.043 321.943 C 240.273 329.278,240.000 333.199,239.043 336.348 C 238.792 337.178,238.496 339.635,238.386 341.810 C 238.186 345.774,238.328 346.583,239.416 347.671 C 239.764 348.020,239.779 348.280,239.481 348.836 C 238.865 349.989,238.933 353.254,239.590 353.983 C 240.488 354.981,241.040 357.654,240.564 358.700 C 240.256 359.375,240.259 359.933,240.577 361.174 C 240.898 362.425,240.900 363.071,240.587 364.115 C 240.366 364.854,240.282 366.047,240.399 366.781 C 240.536 367.641,240.418 368.692,240.062 369.763 C 239.494 371.475,239.028 376.204,238.522 385.427 C 238.137 392.423,237.434 398.992,236.994 399.704 C 236.889 399.875,263.340 400.000,299.561 400.000 L 362.312 400.001 362.121 395.524 C 361.956 391.671,361.823 390.866,361.164 389.750 C 360.743 389.036,360.096 387.470,359.727 386.269 C 359.358 385.069,358.470 382.908,357.753 381.468 C 357.036 380.027,356.449 378.668,356.449 378.446 C 356.449 376.779,349.470 369.200,347.906 369.169 C 347.538 369.161,346.859 368.940,346.399 368.677 C 345.938 368.413,345.237 368.193,344.841 368.186 C 343.769 368.168,340.333 366.289,339.278 365.143 C 338.318 364.099,335.235 362.271,331.057 360.267 C 329.371 359.458,328.516 358.839,328.299 358.268 C 327.946 357.338,326.779 356.784,325.171 356.784 C 323.985 356.784,323.283 356.282,323.283 355.435 C 323.283 354.011,320.550 352.832,316.634 352.567 C 314.227 352.404,313.456 351.869,312.160 349.467 C 311.846 348.885,311.333 348.409,311.019 348.409 C 310.706 348.409,309.907 347.820,309.243 347.101 C 308.258 346.034,307.729 345.752,306.363 345.564 C 305.443 345.437,304.248 345.021,303.709 344.639 C 303.004 344.141,302.058 343.907,300.359 343.812 C 297.324 343.642,296.452 343.289,295.187 341.713 C 294.426 340.767,293.816 340.373,292.862 340.212 C 291.410 339.967,289.447 338.892,289.447 338.342 C 289.447 338.144,288.505 337.537,287.353 336.994 C 286.202 336.451,284.734 335.707,284.092 335.340 C 283.450 334.973,282.466 334.673,281.906 334.673 C 281.345 334.673,280.573 334.454,280.191 334.186 C 279.808 333.918,279.070 333.622,278.550 333.528 C 278.031 333.434,276.742 332.824,275.687 332.172 C 274.632 331.521,273.600 330.988,273.395 330.988 C 273.190 330.988,272.210 330.530,271.218 329.971 C 270.227 329.411,269.106 328.893,268.727 328.820 C 268.349 328.748,267.027 327.829,265.789 326.779 C 262.968 324.386,260.034 322.995,256.883 322.559 C 253.657 322.112,251.094 319.927,249.238 316.042 C 248.802 315.129,247.323 313.265,245.895 311.828 C 244.487 310.410,243.059 308.639,242.722 307.891 C 242.032 306.362,241.627 306.177,241.398 307.286 M198.819 354.538 C 196.817 355.867,196.059 356.581,195.795 357.385 C 195.242 359.073,194.882 359.254,192.218 359.184 C 189.070 359.100,188.739 358.976,188.299 357.713 C 187.914 356.609,187.021 355.444,186.560 355.444 C 186.149 355.444,182.151 359.089,181.538 360.023 C 181.242 360.474,179.800 362.078,178.335 363.588 C 175.835 366.162,173.273 369.553,172.748 370.982 C 172.595 371.397,172.842 372.142,173.469 373.160 C 175.842 377.013,177.554 381.433,177.554 383.703 C 177.554 384.106,176.787 385.489,175.849 386.774 C 174.912 388.060,173.565 390.318,172.856 391.792 C 172.147 393.266,171.027 395.362,170.367 396.450 C 169.706 397.538,169.077 398.782,168.969 399.214 L 168.772 400.000 183.381 400.000 C 191.416 400.000,197.990 399.934,197.990 399.854 C 197.990 399.303,197.138 397.713,196.045 396.224 C 192.570 391.489,191.871 387.905,193.581 383.585 C 194.127 382.203,194.903 380.243,195.304 379.229 C 195.705 378.216,196.315 377.084,196.659 376.714 C 197.003 376.345,197.811 374.886,198.454 373.474 C 199.283 371.655,199.958 370.679,200.768 370.126 C 203.292 368.405,208.040 362.365,208.040 360.876 C 208.040 359.082,203.347 352.764,202.014 352.764 C 201.726 352.764,200.288 353.562,198.819 354.538 " stroke="none" fill="#1a091e" fill-rule="evenodd"></path><path id="path1" d="M273.562 213.233 C 273.154 214.084,272.821 215.795,272.651 217.923 C 272.338 221.814,271.410 227.117,270.936 227.720 C 270.755 227.949,270.690 228.450,270.790 228.833 C 270.890 229.215,270.753 230.309,270.486 231.263 C 270.219 232.218,269.863 234.540,269.694 236.424 C 269.311 240.689,268.234 244.607,266.920 246.518 C 265.336 248.819,263.022 253.560,262.303 255.977 C 261.941 257.191,261.346 258.455,260.980 258.786 C 260.212 259.481,258.461 263.832,257.910 266.412 C 257.703 267.381,257.256 268.529,256.916 268.962 C 256.577 269.395,256.210 270.300,256.100 270.972 C 255.991 271.644,255.829 272.647,255.740 273.199 C 255.493 274.748,258.273 268.477,259.008 265.829 C 259.366 264.539,259.954 263.076,260.314 262.578 C 260.675 262.079,261.280 260.884,261.659 259.921 C 262.997 256.528,266.588 249.406,267.268 248.799 C 267.743 248.373,268.072 247.443,268.333 245.783 C 268.541 244.464,268.919 242.781,269.173 242.044 C 269.737 240.410,270.895 236.220,271.720 232.831 C 272.092 231.300,272.479 227.700,272.709 223.618 C 273.013 218.230,273.218 216.618,273.758 215.389 C 274.127 214.548,274.378 213.417,274.316 212.876 L 274.204 211.893 273.562 213.233 M129.135 290.575 C 129.010 291.409,129.099 293.171,129.335 294.532 C 129.569 295.881,129.785 299.548,129.815 302.680 C 129.859 307.238,130.043 309.278,130.733 312.898 C 131.208 315.385,131.776 318.928,131.996 320.771 C 132.216 322.613,132.598 325.251,132.845 326.633 C 133.092 328.015,133.392 329.824,133.512 330.653 C 133.814 332.753,135.510 339.460,136.350 341.876 C 136.734 342.982,137.495 346.977,138.042 350.754 C 139.194 358.719,140.204 364.159,141.058 367.002 C 141.390 368.107,142.061 370.745,142.549 372.864 C 143.038 374.983,144.165 379.732,145.055 383.417 C 147.814 394.838,148.409 397.568,148.409 398.805 L 148.409 400.000 157.621 400.000 L 166.834 400.000 166.834 399.027 C 166.834 398.492,167.497 396.796,168.307 395.258 C 169.116 393.721,170.417 391.030,171.196 389.280 C 171.975 387.529,172.971 385.617,173.409 385.031 C 174.428 383.665,174.418 382.562,173.378 381.585 C 172.923 381.158,172.302 380.038,171.998 379.098 C 171.693 378.157,170.956 376.859,170.360 376.214 C 167.622 373.255,168.859 370.772,178.194 360.492 C 181.217 357.163,183.821 354.439,183.980 354.439 C 185.417 354.439,184.844 351.830,182.928 349.647 C 182.389 349.034,181.323 347.372,180.559 345.956 C 178.743 342.590,169.115 332.847,165.327 330.543 C 164.405 329.983,162.585 328.522,161.281 327.297 C 159.977 326.073,157.791 324.238,156.423 323.220 C 155.055 322.203,152.075 319.653,149.801 317.553 C 147.527 315.453,144.945 313.132,144.065 312.395 C 142.341 310.952,137.239 305.557,135.910 303.773 C 135.463 303.172,134.634 301.323,134.069 299.665 C 132.593 295.331,130.079 289.312,129.691 289.182 C 129.509 289.122,129.259 289.749,129.135 290.575 M237.281 310.963 C 237.096 311.198,236.467 312.596,235.882 314.070 C 233.722 319.517,226.613 327.290,218.013 333.610 C 216.957 334.386,215.507 335.809,214.792 336.773 C 212.545 339.801,207.192 344.219,204.655 345.140 C 204.360 345.247,202.803 346.276,201.195 347.426 C 198.467 349.377,198.117 349.531,195.968 349.728 C 193.563 349.949,192.220 350.727,191.858 352.110 C 191.518 353.411,192.470 353.563,194.884 352.593 C 202.023 349.724,202.500 349.720,205.134 352.513 C 212.086 359.882,213.363 367.019,208.179 369.528 C 207.395 369.908,206.357 370.738,205.872 371.374 C 205.282 372.148,204.715 372.529,204.154 372.529 C 201.505 372.529,198.408 376.979,195.684 384.700 C 194.127 389.112,194.469 390.668,198.165 395.980 C 199.126 397.362,200.018 398.832,200.147 399.246 L 200.380 400.000 217.202 400.000 L 234.023 400.000 234.626 392.881 C 234.957 388.966,235.455 383.652,235.732 381.072 C 236.482 374.082,236.076 352.129,235.145 349.341 C 234.350 346.957,234.350 346.425,235.153 342.794 C 236.553 336.453,237.379 327.489,237.898 312.984 C 237.977 310.766,237.826 310.270,237.281 310.963 " stroke="none" fill="#ab9eaf" fill-rule="evenodd"></path></g></svg>
